<?xml version="1.0" standalone="no"?>
<!DOCTYPE svg PUBLIC "-//W3C//DTD SVG 20010904//EN"
 "http://www.w3.org/TR/2001/REC-SVG-20010904/DTD/svg10.dtd">
<svg version="1.0" xmlns="http://www.w3.org/2000/svg"
 width="270.000000pt" height="270.000000pt" viewBox="0 0 270.000000 270.000000"
 preserveAspectRatio="xMidYMid meet">
<metadata>
Created by potrace 1.11, written by Peter Selinger 2001-2013
</metadata>
<g transform="translate(0.000000,270.000000) scale(0.100000,-0.100000)"
fill="#000000" stroke="none">
<path d="M103 2408 c-1 -7 -5 -56 -9 -108 -10 -112 -10 -348 0 -440 12 -121
18 -155 47 -277 76 -325 216 -555 439 -724 154 -116 502 -237 1065 -370 72
-17 138 -33 148 -35 10 -2 27 -6 37 -9 10 -3 27 -7 37 -9 10 -2 72 -18 138
-34 339 -86 522 -183 644 -342 54 -70 54 -70 47 -8 -14 127 -101 336 -210 503
-218 333 -577 632 -1024 851 -40 20 -72 38 -69 40 8 9 165 -38 273 -81 292
-117 592 -325 836 -581 28 -30 56 -54 61 -54 15 0 1 313 -18 395 -8 39 -17 79
-19 90 -2 12 -18 63 -35 115 -112 334 -336 582 -665 735 -50 23 -134 56 -187
73 -91 29 -109 34 -176 47 -16 3 -35 8 -43 10 -8 2 -31 7 -50 10 -19 3 -51 10
-70 15 -19 5 -89 18 -155 29 -140 23 -165 27 -320 46 -44 6 -132 14 -200 20
-104 9 -179 16 -225 21 -25 3 -64 7 -88 10 -84 7 -177 37 -186 60 -7 17 -22
18 -23 2z"/>
</g>
</svg>
