<?xml version="1.0" encoding="utf-8"?>
<!-- Generator: Adobe Illustrator 22.1.0, SVG Export Plug-In . SVG Version: 6.00 Build 0)  -->
<svg version="1.1" id="Layer_1" xmlns="http://www.w3.org/2000/svg" xmlns:xlink="http://www.w3.org/1999/xlink" x="0px" y="0px"
	 viewBox="0 0 15 9.4" style="enable-background:new 0 0 15 9.4;" xml:space="preserve">
<style type="text/css">
	.st0{fill:#C81A1E;}
	.st1{fill:#9A0507;}
	.st2{fill:#FFFFFF;}
	.st3{fill:#0EB4FF;}
</style>
<path class="st3" d="M14.8,1.1l-1.1-0.9C13.6,0.1,13.4,0,13.2,0s-0.4,0.1-0.5,0.2l-7,5.9L2.3,3.3C2.2,3.2,2,3.1,1.8,3.1
	S1.4,3.2,1.3,3.3L0.2,4.2C0.1,4.3,0,4.5,0,4.7S0.1,5,0.2,5.1l4.9,4.1c0.1,0.1,0.3,0.2,0.5,0.2S6,9.3,6.2,9.2L14.8,2
	C14.9,1.8,15,1.7,15,1.5S14.9,1.2,14.8,1.1z"/>
</svg>
